<?xml version="1.0" encoding="utf-8"?>
<!-- Generator: Adobe Illustrator 27.0.0, SVG Export Plug-In . SVG Version: 6.00 Build 0)  -->
<!DOCTYPE svg PUBLIC "-//W3C//DTD SVG 1.1//EN" "http://www.w3.org/Graphics/SVG/1.1/DTD/svg11.dtd" [
	<!ENTITY ns_extend "http://ns.adobe.com/Extensibility/1.0/">
	<!ENTITY ns_ai "http://ns.adobe.com/AdobeIllustrator/10.0/">
	<!ENTITY ns_graphs "http://ns.adobe.com/Graphs/1.0/">
	<!ENTITY ns_vars "http://ns.adobe.com/Variables/1.0/">
	<!ENTITY ns_imrep "http://ns.adobe.com/ImageReplacement/1.0/">
	<!ENTITY ns_sfw "http://ns.adobe.com/SaveForWeb/1.0/">
	<!ENTITY ns_custom "http://ns.adobe.com/GenericCustomNamespace/1.0/">
	<!ENTITY ns_adobe_xpath "http://ns.adobe.com/XPath/1.0/">
]>
<svg version="1.1" id="Layer_1" xmlns:x="&ns_extend;" xmlns:i="&ns_ai;" xmlns:graph="&ns_graphs;"
	 xmlns="http://www.w3.org/2000/svg" xmlns:xlink="http://www.w3.org/1999/xlink" x="0px" y="0px" viewBox="0 0 1000 700"
	 style="enable-background:new 0 0 1000 700;" xml:space="preserve">
<style type="text/css">
	.st0{fill:#0D183D;}
	.st1{fill:url(#SVGID_1_);}
	.st2{fill:url(#SVGID_00000045621245925555541680000004301084859383919801_);}
</style>
<metadata>
	<sfw  xmlns="&ns_sfw;">
		<slices></slices>
		<sliceSourceBounds  bottomLeftOrigin="true" height="679" width="985.2" x="8.5" y="-689"></sliceSourceBounds>
	</sfw>
</metadata>
<g>
	<g>
		<path class="st0" d="M217.3,507v61.5c0,8.4-0.4,14.5-1.2,18.1c-0.7,3.3-2.8,6-6.4,8.3c-3.6,2.4-9.2,3.6-16.6,3.6
			c-7.3,0-13-1.3-17.1-3.8c-4.1-2.5-6.6-5.7-7.6-9.7c-0.6-2.6-1-8.6-1-17.7V507h-30.5v59.4c0,12.2,0.9,21.6,2.7,27.9
			c1.3,4.4,4,8.7,8.1,12.7c4,3.9,9.5,7.2,16.4,9.7c6.8,2.4,16.9,3.7,29.9,3.7c10.8,0,19.7-1.1,26.5-3.4c6.8-2.2,12.4-5.3,16.5-9.2
			c4.2-3.9,7-8.7,8.6-14.3c1.5-5.5,2.3-14.9,2.3-28V507H217.3z"/>
		<path class="st0" d="M532.1,618.2h30.5V507h-30.5V618.2z M704.3,578.3c-2.8-9.1-22-71.4-22-71.4h-35.1c0,0-20.4,61.5-23.3,70.3
			c-2.4-8.9-18.8-70.3-18.8-70.3h-31.5l32.3,111.2h32.5c0,0,22.9-69.2,25.6-77.3c2.7,8.1,25.3,77.3,25.3,77.3h31.9L754.6,507h-30.8
			C723.8,507,706.8,569.2,704.3,578.3z M963.3,507c0,0,0,61.2,0,69.4C958.1,569.7,910,507,910,507h-28.8v111.2h28.4
			c0,0,0-59.8,0-67.9c5.1,6.6,52.4,67.9,52.4,67.9h29.6V507H963.3z"/>
		<path class="st0" d="M98.2,618.2H138c0,0-58.7-59.5-61-61.9c2.5-2.1,59-49.4,59-49.4H94.2c0,0-47.4,41.7-52.2,45.8
			c0-6,0-45.8,0-45.8H10.5v111.2H42l0-60.2L98.2,618.2z"/>
		<path class="st0" d="M486,618.2h39.8c0,0-58.7-59.5-61-61.9c2.5-2.1,59-49.4,59-49.4H482c0,0-47.4,41.7-52.2,45.8
			c0-6,0-45.8,0-45.8h-31.5v111.2h31.5l0-60.2L486,618.2z"/>
		<path class="st0" d="M352.7,618.2h39.8c0,0-58.7-59.5-61-61.9c2.5-2.1,59-49.4,59-49.4h-41.7c0,0-47.4,41.7-52.2,45.8
			c0-6,0-45.8,0-45.8h-31.5v111.2h31.5l0-60.2L352.7,618.2z"/>
		<path class="st0" d="M809.2,502.4c-33.2,0-60.2,26.9-60.2,60.2c0,33.2,26.9,60.2,60.2,60.2c33.2,0,60.2-26.9,60.2-60.2
			C869.4,529.4,842.5,502.4,809.2,502.4z M809.2,594.6c-17.6,0-32-14.3-32-32c0-17.7,14.3-32,32-32c17.7,0,32,14.3,32,32
			C841.2,580.2,826.9,594.6,809.2,594.6z"/>
		<path class="st0" d="M786.6,671.4c0,3.9-0.2,6.8-0.6,8.4c-0.4,1.6-1.2,3-2.3,4.2c-1.1,1.1-2.5,2-4.4,2.7c-1.8,0.6-5.8,1-8.7,1
			h-0.1c-3,0-7.1-0.3-8.8-1c-1.8-0.7-3.3-1.6-4.4-2.7c-1.1-1.1-1.9-2.5-2.3-4.2c-0.4-1.7-0.6-4.5-0.6-8.4v-17.3h7.9v18.3
			c0,0,0,1.6,0,2.4c0.1,2.1,0.2,4.2,1.9,5.9c1,1.1,4.7,1.2,6.3,1.2c1.5,0,5.2-0.1,6.3-1.2c1.7-1.7,1.9-3.7,1.9-5.8l0-20.7h7.9V671.4
			z"/>
		<path class="st0" d="M463,654.1h7.9V687H463l-16.8-21.3V687h-7.9c0-0.7,0-32.3,0-32.9h7.9L463,675V654.1z"/>
		<path class="st0" d="M28.3,654.1h9.1l6.3,22.6l5.6-22.6h7.9l-9,32.9h-8.3l-7.2-24.3c0,0-7.1,23.8-7.3,24.3h-8.3l-8.6-32.9h7.9
			l5.4,22.3L28.3,654.1z"/>
		<path class="st0" d="M370.1,654.1h9.1l6.3,22.6l5.5-22.6h7.9l-9,32.9h-8.3l-7.2-24.3c0,0-7.1,23.8-7.3,24.3h-8.3l-8.6-32.9h7.8
			l5.4,22.3L370.1,654.1z"/>
		<polygon class="st0" points="135.1,687 135.1,654.1 143,654.1 143,680.5 161.8,680.5 161.8,687 		"/>
		<path class="st0" d="M216.5,654.1c0.7,0,30.4,0,31.1,0v6.6h-11.7c0,0,0,25.7,0,26.4c-0.6,0-7.3,0-7.9,0c0-0.7,0-26.4,0-26.4h-11.6
			V654.1z"/>
		<path class="st0" d="M859.9,654.1c0.7,0,30.5,0,31.1,0v6.6h-11.7c0,0,0,25.7,0,26.4c-0.6,0-7.3,0-7.9,0c0-0.7,0-26.4,0-26.4h-11.6
			V654.1z"/>
		<path class="st0" d="M266,654.1h-8.8l-14,32.9h8.2l2.8-7.1l15,0l2.8,7.1h8.2L266,654.1z M256.5,673.8l5.2-13.2l5.2,13.2H256.5z"/>
		<path class="st0" d="M266,654.1h-8.8l-14,32.9h8.2l2.8-7.1l15,0l2.8,7.1h8.2L266,654.1z M256.5,673.8l5.2-13.2l5.2,13.2H256.5z"/>
		<path class="st0" d="M663.9,654.1H655L641,687h8.2l2.8-7.1l15,0l2.8,7.1h8.2L663.9,654.1z M654.3,673.8l5.2-13.2l5.2,13.2H654.3z"
			/>
		<path class="st0" d="M663.9,654.1H655L641,687h8.2l2.8-7.1l15,0l2.8,7.1h8.2L663.9,654.1z M654.3,673.8l5.2-13.2l5.2,13.2H654.3z"
			/>
		<path class="st0" d="M809.2,654.1h-8.8l-14,32.9h8.1l2.8-7.1l15,0l2.8,7.1h8.2L809.2,654.1z M799.7,673.8l5.2-13.2l5.2,13.2H799.7
			z"/>
		<path class="st0" d="M809.2,654.1h-8.8l-14,32.9h8.1l2.8-7.1l15,0l2.8,7.1h8.2L809.2,654.1z M799.7,673.8l5.2-13.2l5.2,13.2H799.7
			z"/>
		<path class="st0" d="M310.3,654.1v6.5h-19.1v5.8h17.7v6.5h-17.7v7.5H311v6.6c-0.7,0-27.1,0-27.8,0v-32.9H310.3z"/>
		<path class="st0" d="M638.3,654.1v6.5h-19.1v5.8h17.7v6.5h-17.7v7.5h19.9v6.6c-0.7,0-27.1,0-27.8,0v-32.9H638.3z"/>
		<path class="st0" d="M922.2,654.1v6.5h-19.1v5.8h17.7v6.5h-17.7v7.5H923v6.6c-0.7,0-27.1,0-27.8,0v-32.9H922.2z"/>
		<path class="st0" d="M596.2,673.3h-15.6V687h-7.9c0-0.7,0-32.2,0-32.9h7.9v12.6h15.6v-12.6h7.9V687h-7.9V673.3z"/>
		<path class="st0" d="M970.1,676.4c0.4,2,1.3,3.4,2.8,4.5c1.4,1.1,3.3,1.6,5.7,1.6c2.5,0,4.4-0.5,5.7-1.4c1.3-1,2-2.2,2-3.6
			c0-0.9-0.3-1.7-0.9-2.3c-0.6-0.6-1.5-1.1-2.9-1.5c-0.9-0.3-2.9-0.8-6-1.5c-4.8-1.1-7.8-2.1-9.1-3.2c-2.1-1.7-3.1-3.8-3.1-6.5
			c0-1.6,0.5-3.2,1.5-4.6c1-1.4,2.6-2.5,4.5-3.3c2-0.8,5.7-1.1,8.3-1.1c4.6,0,8.1,0.9,10.4,2.7c2.1,1.7,3.3,4.1,3.5,6.9H985
			c-0.3-1.6-1-2.7-2.1-3.5c-1.1-0.8-2.8-1.2-5-1.2c-2.4,0-4.7,0.5-5.9,1.3c-0.9,0.6-1.4,1.4-1.4,2.4c0,0.9,0.4,1.7,1.3,2.3
			c1,0.8,3.3,1.5,7.1,2.3l0.1,0c3.7,0.8,7.4,1.6,9.1,2.4c1.7,0.8,3,1.9,4,3.3l0,0c1,1.4,1.4,3.1,1.4,5.2c0,1.9-0.6,3.6-1.7,5.2
			c-1.1,1.6-2.8,2.8-4.9,3.6c-1.9,0.7-5.5,1.2-9.1,1.2c-4.6,0-8.2-1-10.7-2.9c-2.3-1.8-3.8-4.7-4.3-8.4H970.1z M992.8,672L992.8,672
			L992.8,672L992.8,672z"/>
		<path class="st0" d="M120,672c2-0.2,5.3-1.8,6.6-2.9c1.6-1.5,2.4-3,2.4-5.4c0-1.9-0.5-4.2-1.6-5.7c-1-1.4-2.6-2.5-4.4-3.1
			c-1.4-0.4-4.6-0.9-9.2-0.9H97.1V687h7.9v-13.1h4.5h0.6c1.2,0,1.5,0,2.3,0.4c0.1,0.1,0.4,0.3,0.7,0.6l9,12.1h9.6L120,672z
			 M110.9,667.9H105l0-7.7h6.2c2.9,0,4.8,0,5.5,0.1c0.9,0,4.2,0.8,4.2,3.5c0,2.2-1.4,3.1-3.1,3.7
			C116.8,667.7,114.4,667.9,110.9,667.9z"/>
		<path class="st0" d="M120,672c2-0.2,5.3-1.8,6.6-2.9c1.6-1.5,2.4-3,2.4-5.4c0-1.9-0.5-4.2-1.6-5.7c-1-1.4-2.6-2.5-4.4-3.1
			c-1.4-0.4-4.6-0.9-9.2-0.9H97.1V687h7.9v-13.1h4.5h0.6c1.2,0,1.5,0,2.3,0.4c0.1,0.1,0.4,0.3,0.7,0.6l9,12.1h9.6L120,672z
			 M110.9,667.9H105l0-7.7h6.2c2.9,0,4.8,0,5.5,0.1c0.9,0,4.2,0.8,4.2,3.5c0,2.2-1.4,3.1-3.1,3.7
			C116.8,667.7,114.4,667.9,110.9,667.9z"/>
		<path class="st0" d="M848.5,672c2-0.2,5.3-1.8,6.6-2.9c1.7-1.5,2.4-3,2.4-5.4c0-1.9-0.5-4.2-1.6-5.7c-1-1.4-2.6-2.5-4.4-3.1
			c-1.4-0.4-4.6-0.9-9.2-0.9h-16.6V687h7.9v-13.1h4.5h0.6c1.2,0,1.5,0,2.3,0.4c0.1,0.1,0.4,0.3,0.7,0.6l9.1,12.1h9.6L848.5,672z
			 M839.5,667.9h-6v-7.7h6.3c2.9,0,4.8,0,5.5,0.1c0.9,0,4.2,0.8,4.2,3.5c0,2.2-1.4,3.1-3.1,3.7C845.3,667.7,843,667.9,839.5,667.9z"
			/>
		<path class="st0" d="M848.5,672c2-0.2,5.3-1.8,6.6-2.9c1.7-1.5,2.4-3,2.4-5.4c0-1.9-0.5-4.2-1.6-5.7c-1-1.4-2.6-2.5-4.4-3.1
			c-1.4-0.4-4.6-0.9-9.2-0.9h-16.6V687h7.9v-13.1h4.5h0.6c1.2,0,1.5,0,2.3,0.4c0.1,0.1,0.4,0.3,0.7,0.6l9.1,12.1h9.6L848.5,672z
			 M839.5,667.9h-6v-7.7h6.3c2.9,0,4.8,0,5.5,0.1c0.9,0,4.2,0.8,4.2,3.5c0,2.2-1.4,3.1-3.1,3.7C845.3,667.7,843,667.9,839.5,667.9z"
			/>
		<path class="st0" d="M950.9,672c2-0.2,5.3-1.8,6.6-2.9c1.7-1.5,2.4-3,2.4-5.4c0-1.9-0.5-4.2-1.6-5.7c-1-1.4-2.6-2.5-4.5-3.1
			c-1.4-0.4-4.6-0.9-9.2-0.9H928V687h7.9v-13.1h4.5h0.6c1.2,0,1.5,0,2.3,0.4c0.1,0.1,0.4,0.3,0.7,0.6l9,12.1h9.6L950.9,672z
			 M941.8,667.9h-5.9v-7.7h6.2c2.9,0,4.8,0,5.5,0.1c0.9,0,4.1,0.8,4.1,3.5c0,2.2-1.4,3.1-3.1,3.7
			C947.7,667.7,945.3,667.9,941.8,667.9z"/>
		<path class="st0" d="M950.9,672c2-0.2,5.3-1.8,6.6-2.9c1.7-1.5,2.4-3,2.4-5.4c0-1.9-0.5-4.2-1.6-5.7c-1-1.4-2.6-2.5-4.5-3.1
			c-1.4-0.4-4.6-0.9-9.2-0.9H928V687h7.9v-13.1h4.5h0.6c1.2,0,1.5,0,2.3,0.4c0.1,0.1,0.4,0.3,0.7,0.6l9,12.1h9.6L950.9,672z
			 M941.8,667.9h-5.9v-7.7h6.2c2.9,0,4.8,0,5.5,0.1c0.9,0,4.1,0.8,4.1,3.5c0,2.2-1.4,3.1-3.1,3.7
			C947.7,667.7,945.3,667.9,941.8,667.9z"/>
		<polygon class="st0" points="340.8,687 325.7,668.3 339.7,654.1 350.2,654.1 335.1,668.6 350.8,687 		"/>
		<rect x="317.7" y="654.1" class="st0" width="7.9" height="32.9"/>
		<path class="st0" d="M75.3,652.8c-9.8,0-17.7,7.9-17.7,17.7c0,9.8,7.9,17.7,17.7,17.7c9.7,0,17.7-7.9,17.7-17.7
			C93,660.8,85,652.8,75.3,652.8z M75.3,681.1c-5.8,0-10.5-4.7-10.5-10.5c0-5.8,4.7-10.5,10.5-10.5c5.8,0,10.5,4.7,10.5,10.5
			C85.8,676.3,81.1,681.1,75.3,681.1z"/>
		<path class="st0" d="M75.3,652.8c-9.8,0-17.7,7.9-17.7,17.7c0,9.8,7.9,17.7,17.7,17.7c9.7,0,17.7-7.9,17.7-17.7
			C93,660.8,85,652.8,75.3,652.8z M75.3,681.1c-5.8,0-10.5-4.7-10.5-10.5c0-5.8,4.7-10.5,10.5-10.5c5.8,0,10.5,4.7,10.5,10.5
			C85.8,676.3,81.1,681.1,75.3,681.1z"/>
		<path class="st0" d="M416.9,652.8c-9.8,0-17.7,7.9-17.7,17.7c0,9.8,7.9,17.7,17.7,17.7c9.8,0,17.7-7.9,17.7-17.7
			C434.6,660.8,426.6,652.8,416.9,652.8z M416.9,681.1c-5.8,0-10.5-4.7-10.5-10.5c0-5.8,4.7-10.5,10.5-10.5
			c5.8,0,10.5,4.7,10.5,10.5C427.4,676.3,422.7,681.1,416.9,681.1z"/>
		<path class="st0" d="M416.9,652.8c-9.8,0-17.7,7.9-17.7,17.7c0,9.8,7.9,17.7,17.7,17.7c9.8,0,17.7-7.9,17.7-17.7
			C434.6,660.8,426.6,652.8,416.9,652.8z M416.9,681.1c-5.8,0-10.5-4.7-10.5-10.5c0-5.8,4.7-10.5,10.5-10.5
			c5.8,0,10.5,4.7,10.5,10.5C427.4,676.3,422.7,681.1,416.9,681.1z"/>
		<path class="st0" d="M529.6,652.8c-9.8,0-17.7,7.9-17.7,17.7c0,9.8,7.9,17.7,17.7,17.7c9.8,0,17.7-7.9,17.7-17.7
			C547.3,660.8,539.3,652.8,529.6,652.8z M529.6,681.1c-5.8,0-10.5-4.7-10.5-10.5c0-5.8,4.7-10.5,10.5-10.5
			c5.8,0,10.5,4.7,10.5,10.5C540.1,676.3,535.4,681.1,529.6,681.1z"/>
		<path class="st0" d="M529.6,652.8c-9.8,0-17.7,7.9-17.7,17.7c0,9.8,7.9,17.7,17.7,17.7c9.8,0,17.7-7.9,17.7-17.7
			C547.3,660.8,539.3,652.8,529.6,652.8z M529.6,681.1c-5.8,0-10.5-4.7-10.5-10.5c0-5.8,4.7-10.5,10.5-10.5
			c5.8,0,10.5,4.7,10.5,10.5C540.1,676.3,535.4,681.1,529.6,681.1z"/>
		<path class="st0" d="M746.6,681l0.2-0.3c2.1-3,3.2-6.5,3.2-10.1c0-9.8-7.9-17.7-17.7-17.7c-9.8,0-17.7,7.9-17.7,17.7
			c0,9.7,7.9,17.7,17.7,17.7c3.7,0,7.2-1.1,10.2-3.2l0.2-0.1c0,0,6.4,3.7,6.9,4c0.3-0.5,2.4-4.1,2.7-4.7
			C751.7,684,746.6,681,746.6,681z M740.5,677.2l-0.2,0.2c0,0-5.8-3.4-6.4-3.7c-0.3,0.5-2.4,4.1-2.7,4.6c0.5,0.3,4.2,2.4,4.2,2.4
			l-0.9,0.2c-0.7,0.2-1.5,0.2-2.2,0.2c-5.8,0-10.5-4.7-10.5-10.5c0-5.8,4.7-10.5,10.5-10.5c5.8,0,10.5,4.7,10.5,10.5
			C742.8,673,742,675.3,740.5,677.2z"/>
		<path class="st0" d="M746.6,681l0.2-0.3c2.1-3,3.2-6.5,3.2-10.1c0-9.8-7.9-17.7-17.7-17.7c-9.8,0-17.7,7.9-17.7,17.7
			c0,9.7,7.9,17.7,17.7,17.7c3.7,0,7.2-1.1,10.2-3.2l0.2-0.1c0,0,6.4,3.7,6.9,4c0.3-0.5,2.4-4.1,2.7-4.7
			C751.7,684,746.6,681,746.6,681z M740.5,677.2l-0.2,0.2c0,0-5.8-3.4-6.4-3.7c-0.3,0.5-2.4,4.1-2.7,4.6c0.5,0.3,4.2,2.4,4.2,2.4
			l-0.9,0.2c-0.7,0.2-1.5,0.2-2.2,0.2c-5.8,0-10.5-4.7-10.5-10.5c0-5.8,4.7-10.5,10.5-10.5c5.8,0,10.5,4.7,10.5,10.5
			C742.8,673,742,675.3,740.5,677.2z"/>
		<path class="st0" d="M196,663.1L196,663.1c-0.8-2.1-2-3.9-3.6-5.3c-1.6-1.4-3.5-2.5-5.7-3c-1.6-0.4-4-0.6-7.1-0.6h-13.8V687H180
			c2.8,0,5-0.2,6.7-0.7c2.2-0.6,4-1.5,5.4-2.7c1.8-1.5,3.1-3.4,4-5.8c0.8-1.9,1.2-4.3,1.2-7C197.3,667.8,196.9,665.2,196,663.1z
			 M188.4,675.9c-0.5,1.4-1.1,2.4-1.9,3c-0.8,0.6-1.7,1-2.9,1.3c-0.9,0.2-2.4,0.3-4.5,0.3h-5.5l0-19.8h3.2c3,0,5,0.1,6.1,0.3
			c1.3,0.3,2.5,0.8,3.3,1.5c0.9,0.7,1.6,1.8,2,3c0.5,1.3,0.8,2.7,0.8,5.1C189.2,673,188.9,674.5,188.4,675.9z"/>
		<path class="st0" d="M196,663.1L196,663.1c-0.8-2.1-2-3.9-3.6-5.3c-1.6-1.4-3.5-2.5-5.7-3c-1.6-0.4-4-0.6-7.1-0.6h-13.8V687H180
			c2.8,0,5-0.2,6.7-0.7c2.2-0.6,4-1.5,5.4-2.7c1.8-1.5,3.1-3.4,4-5.8c0.8-1.9,1.2-4.3,1.2-7C197.3,667.8,196.9,665.2,196,663.1z
			 M188.4,675.9c-0.5,1.4-1.1,2.4-1.9,3c-0.8,0.6-1.7,1-2.9,1.3c-0.9,0.2-2.4,0.3-4.5,0.3h-5.5l0-19.8h3.2c3,0,5,0.1,6.1,0.3
			c1.3,0.3,2.5,0.8,3.3,1.5c0.9,0.7,1.6,1.8,2,3c0.5,1.3,0.8,2.7,0.8,5.1C189.2,673,188.9,674.5,188.4,675.9z"/>
		<path class="st0" d="M710.1,663.1L710.1,663.1c-0.8-2.1-2-3.9-3.6-5.3c-1.6-1.4-3.5-2.5-5.7-3c-1.6-0.4-4-0.6-7.1-0.6H680V687
			h14.2c2.8,0,5-0.2,6.7-0.7c2.2-0.6,4-1.5,5.4-2.7c1.8-1.5,3.1-3.4,4-5.8c0.8-1.9,1.1-4.3,1.1-7
			C711.3,667.8,710.9,665.2,710.1,663.1z M702.5,675.9c-0.5,1.4-1.1,2.4-1.9,3c-0.7,0.6-1.7,1-2.9,1.3c-0.9,0.2-2.4,0.3-4.4,0.3
			h-5.5l0-19.8h3.2c3,0,5.1,0.1,6.1,0.3c1.3,0.3,2.5,0.8,3.3,1.5c0.9,0.7,1.5,1.8,2,3c0.5,1.3,0.7,2.7,0.7,5.1
			C703.3,673,703,674.5,702.5,675.9z"/>
		<path class="st0" d="M710.1,663.1L710.1,663.1c-0.8-2.1-2-3.9-3.6-5.3c-1.6-1.4-3.5-2.5-5.7-3c-1.6-0.4-4-0.6-7.1-0.6H680V687
			h14.2c2.8,0,5-0.2,6.7-0.7c2.2-0.6,4-1.5,5.4-2.7c1.8-1.5,3.1-3.4,4-5.8c0.8-1.9,1.1-4.3,1.1-7
			C711.3,667.8,710.9,665.2,710.1,663.1z M702.5,675.9c-0.5,1.4-1.1,2.4-1.9,3c-0.7,0.6-1.7,1-2.9,1.3c-0.9,0.2-2.4,0.3-4.4,0.3
			h-5.5l0-19.8h3.2c3,0,5.1,0.1,6.1,0.3c1.3,0.3,2.5,0.8,3.3,1.5c0.9,0.7,1.5,1.8,2,3c0.5,1.3,0.7,2.7,0.7,5.1
			C703.3,673,703,674.5,702.5,675.9z"/>
		<path class="st0" d="M507.5,663.1L507.5,663.1c-0.8-2.1-2-3.9-3.6-5.3c-1.6-1.4-3.5-2.5-5.7-3c-1.6-0.4-4-0.6-7.1-0.6h-13.8V687
			h14.2c2.8,0,5-0.2,6.7-0.7c2.2-0.6,4-1.5,5.4-2.7c1.8-1.5,3.1-3.4,4-5.8c0.8-1.9,1.2-4.3,1.2-7
			C508.8,667.8,508.3,665.2,507.5,663.1z M499.9,675.9c-0.5,1.4-1.1,2.4-1.9,3c-0.8,0.6-1.7,1-2.9,1.3c-0.9,0.2-2.4,0.3-4.5,0.3
			h-5.5l0-19.8h3.2c3,0,5,0.1,6.1,0.3c1.3,0.3,2.4,0.8,3.3,1.5c0.9,0.7,1.5,1.8,2,3c0.5,1.3,0.7,2.7,0.7,5.1
			C500.6,673,500.4,674.5,499.9,675.9z"/>
		<path class="st0" d="M507.5,663.1L507.5,663.1c-0.8-2.1-2-3.9-3.6-5.3c-1.6-1.4-3.5-2.5-5.7-3c-1.6-0.4-4-0.6-7.1-0.6h-13.8V687
			h14.2c2.8,0,5-0.2,6.7-0.7c2.2-0.6,4-1.5,5.4-2.7c1.8-1.5,3.1-3.4,4-5.8c0.8-1.9,1.2-4.3,1.2-7
			C508.8,667.8,508.3,665.2,507.5,663.1z M499.9,675.9c-0.5,1.4-1.1,2.4-1.9,3c-0.8,0.6-1.7,1-2.9,1.3c-0.9,0.2-2.4,0.3-4.5,0.3
			h-5.5l0-19.8h3.2c3,0,5,0.1,6.1,0.3c1.3,0.3,2.4,0.8,3.3,1.5c0.9,0.7,1.5,1.8,2,3c0.5,1.3,0.7,2.7,0.7,5.1
			C500.6,673,500.4,674.5,499.9,675.9z"/>
	</g>
	<g>
		<linearGradient id="SVGID_1_" gradientUnits="userSpaceOnUse" x1="9.0421" y1="235.6343" x2="993.0317" y2="235.6343">
			<stop  offset="0" style="stop-color:#026891"/>
			<stop  offset="5.611086e-02" style="stop-color:#046089"/>
			<stop  offset="0.2969" style="stop-color:#0A456C"/>
			<stop  offset="0.5365" style="stop-color:#0E3158"/>
			<stop  offset="0.7724" style="stop-color:#11254B"/>
			<stop  offset="1" style="stop-color:#122147"/>
		</linearGradient>
		<path class="st1" d="M966.5,461.3C983.7,388.7,993,310.9,993,230c0-76.8-8.4-150.7-24-220C843.9,54.6,680.2,81.6,501,81.6
			S158.2,54.6,33,10C17.5,79.3,9,153.2,9,230c0,81,9.4,158.8,26.6,231.3c124.8-44,287.5-70.7,465.4-70.7
			C679,390.6,841.7,417.2,966.5,461.3z"/>
		
			<linearGradient id="SVGID_00000160875404507904537550000016275416005244024735_" gradientUnits="userSpaceOnUse" x1="27.4478" y1="235.6343" x2="993.0317" y2="235.6343">
			<stop  offset="0" style="stop-color:#B19A52"/>
			<stop  offset="1" style="stop-color:#7C713A"/>
		</linearGradient>
		<path style="fill:url(#SVGID_00000160875404507904537550000016275416005244024735_);" d="M966.5,461.3
			C983.7,388.7,993,310.9,993,230c0-76.8-8.4-150.7-24-220C843.9,54.6,680.2,81.6,501,81.6S158.2,54.6,33,10
			c0,0-54.1,204.7,175.3,276.6s328.8,40.5,347.2,13.8s-23.7-48.2-59.7-68.8s-69.5-39-53.5-66.5c13.8-23.7,97.1-37.5,198.1-21.4
			S1010.5,226.2,966.5,461.3z"/>
	</g>
</g>
</svg>
