<?xml version="1.0" encoding="utf-8"?>
<!-- Generator: Adobe Illustrator 27.0.0, SVG Export Plug-In . SVG Version: 6.00 Build 0)  -->
<!DOCTYPE svg PUBLIC "-//W3C//DTD SVG 1.1//EN" "http://www.w3.org/Graphics/SVG/1.1/DTD/svg11.dtd" [
	<!ENTITY ns_extend "http://ns.adobe.com/Extensibility/1.0/">
	<!ENTITY ns_ai "http://ns.adobe.com/AdobeIllustrator/10.0/">
	<!ENTITY ns_graphs "http://ns.adobe.com/Graphs/1.0/">
	<!ENTITY ns_vars "http://ns.adobe.com/Variables/1.0/">
	<!ENTITY ns_imrep "http://ns.adobe.com/ImageReplacement/1.0/">
	<!ENTITY ns_sfw "http://ns.adobe.com/SaveForWeb/1.0/">
	<!ENTITY ns_custom "http://ns.adobe.com/GenericCustomNamespace/1.0/">
	<!ENTITY ns_adobe_xpath "http://ns.adobe.com/XPath/1.0/">
]>
<svg version="1.1" id="Layer_1" xmlns:x="&ns_extend;" xmlns:i="&ns_ai;" xmlns:graph="&ns_graphs;"
	 xmlns="http://www.w3.org/2000/svg" xmlns:xlink="http://www.w3.org/1999/xlink" x="0px" y="0px" viewBox="0 0 1000 761"
	 style="enable-background:new 0 0 1000 761;" xml:space="preserve">
<metadata>
	<sfw  xmlns="&ns_sfw;">
		<slices></slices>
		<sliceSourceBounds  bottomLeftOrigin="true" height="744" width="983.3" x="9.4" y="247"></sliceSourceBounds>
	</sfw>
</metadata>
<path d="M970.8,30.8C957.4,17.4,938.8,9,918.3,9H83.7c-20.5,0-39.1,8.4-52.5,21.8S9.4,62.8,9.4,83.3v595.4
	c0,20.5,8.4,39.1,21.8,52.5c13.4,13.4,32,21.8,52.5,21.8h834.8c20.5,0,39.1-8.4,52.5-21.8c13.4-13.4,21.8-32,21.8-52.5V83.3
	C992.6,62.8,984.2,44.2,970.8,30.8z M976.4,678.7c0,16-6.5,30.5-17,41c-10.5,10.5-25,17-41,17H83.7c-16,0-30.5-6.5-41-17
	s-17-25-17-41V83.3c0-16,6.5-30.5,17-41c10.5-10.5,25-17,41-17h834.8c16,0,30.5,6.5,41,17c10.5,10.5,17,25,17,41V678.7z"/>
<g>
	<path d="M273.2,188.3l-36.1,4l-0.1-1.3c5.2-0.9,5.7-1.9,5.1-7.2l-3.3-29.9c-0.6-5.1-1.5-6-6.6-5.8l-0.1-1.3l35.6-3.9l1.3,9.8
		l-1.6,0.2c-1.6-6.1-3.3-6.9-11.1-6.1l-8.8,0.9c-1.9,0.2-2.4,0.6-2.1,2.7l1.6,15.1l10.1-1.1c5.8-0.6,6.6-1.9,6.8-7.4l1.5-0.1
		l1.8,16.1l-1.5,0.1c-1.4-5.7-2.6-6.5-8.4-5.8l-10.1,1.1l1.9,16.7c0.4,2.8,2.1,3.1,7.2,2.5l2.4-0.2c9.5-1.1,12.2-3.2,14.5-10.8
		l1.9-0.2L273.2,188.3z"/>
	<path d="M303.5,152.7c-1.2-2.9-2.1-4.6-3.4-6.1c-2.7-2.8-6.2-4.7-10.4-4.2c-4.1,0.5-6.5,3.5-6,7.3c0.5,4.7,5.8,7.1,13.3,10.5
		c7.5,3.5,11.3,7.1,11.9,12.4c0.8,7.7-4.5,13.5-12.2,14.4c-2.8,0.4-5.5,0.1-8.1-0.7c-1.3-0.4-2.5-0.5-3.2-0.4
		c-1.1,0.1-1.8,1.1-1.6,2.5l-1.5,0.1l-3.5-14.4l1.5-0.1c4,8,8.8,11.3,15.2,10.6c4.7-0.5,7.7-4,7.2-8.6c-0.2-2.4-1.1-3.9-2.6-5.2
		c-2.6-2.4-7.5-4.8-12.1-6.7c-6.4-2.6-9.1-6.7-9.4-10.9c-0.8-7.5,3.6-12.6,10.4-13.3c2.7-0.4,4.6-0.1,7.2,0.7
		c1.3,0.5,2.4,0.6,3.1,0.5c1.2-0.1,1.8-1.1,1.9-2.6l1.4-0.1l3.1,14.5H303.5z"/>
	<path d="M347.7,145.9c-2.4-7.4-4.2-8.5-11.3-7.7l-4,0.5l3.9,35c0.6,5.2,1.6,5.9,7.2,5.7l0.1,1.3l-19.5,2.1l-0.1-1.3
		c5.5-0.9,6.1-1.8,5.5-7.9l-3.8-34.1l-4,0.5c-7.1,0.8-8.8,2.2-9.3,9.9l-1.6,0.2l-0.8-11.8l37.7-4.1l1.8,11.7L347.7,145.9z"/>
	<path d="M359.7,179.5c-2.1,0.2-3.9-1.3-4.1-3.4c-0.2-2.1,1.3-4,3.3-4.2c2-0.2,3.9,1.4,4.1,3.5C363.3,177.3,361.7,179.3,359.7,179.5
		z"/>
</g>
<g>
	<path d="M656,175.6l0.2-1.1c4.9,0.6,6.6-0.6,7.3-4.4l5.3-30.6c0.4-2.4,0-3.4-1.4-3.6c-0.7-0.1-1.9,0-3.2,0.4l-1.9,0.4l0.1-0.9
		l12.9-4.1l0.6,0.4l-7.1,40.6c-0.5,2.9,0.6,4.4,5.5,5.3l-0.2,1.1L656,175.6z"/>
	<path d="M685.1,180.8c10.4-0.1,19.1-5.9,23.7-16.6c-3.3,2.4-6.7,2.8-10.6,2.1c-7.2-1.3-10.9-7.7-9.5-15.9
		c1.6-9.2,8.7-15.1,16.6-13.7c4.2,0.7,7.5,3.3,9.5,6.9c2.1,3.9,2.8,9.1,1.8,14.7c-1.4,7.8-5.3,14.8-11.5,18.8
		c-6.6,4.2-11.2,5.2-20,4.8L685.1,180.8z M710.1,157.3c2-11.4,0-17.8-5.8-18.8c-2-0.4-3.9,0.1-5.3,1.4c-1.6,1.6-3.3,5.4-4,9.2
		c-1.4,8.1,0.9,13.8,5.9,14.6c2.9,0.5,8-0.1,8.7-3.8L710.1,157.3z"/>
	<path d="M718.3,186.6c10.4-0.1,19.1-5.9,23.7-16.6c-3.3,2.4-6.7,2.8-10.6,2.1c-7.2-1.3-10.9-7.7-9.5-15.9
		c1.6-9.2,8.7-15.1,16.6-13.7c4.2,0.7,7.5,3.3,9.5,6.9c2.1,3.9,2.8,9.1,1.8,14.7c-1.4,7.8-5.3,14.8-11.5,18.8
		c-6.6,4.2-11.2,5.2-20,4.8L718.3,186.6z M743.3,163.2c2-11.4,0-17.8-5.8-18.8c-2-0.4-3.9,0.1-5.3,1.4c-1.6,1.6-3.3,5.4-4,9.2
		c-1.4,8.1,0.9,13.8,5.9,14.6c2.9,0.5,8-0.1,8.7-3.8L743.3,163.2z"/>
	<path d="M756.9,157.1c3.1-6.1,8-10,15-8.7c6.1,1.1,9.7,5.5,8.7,11.2c-0.6,3.3-2.9,6.4-7.8,8.4c2.7,1.8,3.8,2.8,4.8,4.6
		c1.5,2.5,2,5.8,1.4,9.3c-0.6,3.6-2.4,6.7-4.7,8.9c-4,3.8-10.6,4.7-16.5,3.6c-4.8-0.8-7.2-2.7-6.7-5.2c0.2-1.4,1.6-2.2,3.2-2
		c1.2,0.2,2.1,0.8,3.8,2.5c2.1,2.2,3.5,2.8,5.3,3.1c4.9,0.8,9.4-3.2,10.5-8.9c0.9-5.2-0.8-8.9-5.2-11.1c-1.4-0.7-2.8-1.2-6.7-1.9
		l0.1-0.9c2.7-0.5,4.6-0.9,6-1.5c3.5-1.3,6.2-4,6.9-8.2c0.8-4.6-1.5-7.4-6-8.2c-4.1-0.7-7.5,0.9-11.2,5.5L756.9,157.1z"/>
</g>
<g>
	<path d="M601.5,298.1c0.1-2.5,0.4-4.9,0.4-7.4c0.1-18.6-0.1-37.2,0.4-55.8c0.2-7.5-1.2-13.7-7.9-17.9c-1.1-0.7-1.8-2-2.7-3.1
		c0.1-0.7,0.2-1.4,0.5-2.2c11.8,0.6,23.7,1.3,36,1.9c-0.5,1.9-0.5,3.2-0.9,3.5c-8.7,5.1-8.8,13.2-8.8,21.8
		c0,40.7-0.2,81.6-0.5,122.3c0,3.9,1.9,9.1-5.1,9.8c-9.8,1.1-13.2-0.2-15.2-7.7c-9.1-32.8-17.9-65.8-26.8-98.7
		c-0.7-2.7-1.4-5.3-2.1-7.9c-0.7,0-1.3,0-2,0.1c-0.2,2.4-0.6,4.7-0.6,7.1c-0.1,27.7,0,55.3-0.4,83c-0.1,7.9,1.1,14.6,8.1,19.2
		c0.7,0.5,1.3,1.4,1.9,2.1c0.2,0.4,0.1,0.9,0.2,2.1c-11.8,0-23.4,0-35.7,0c0.4-1.4,0.4-2.6,0.9-2.9c8.7-5.7,8.8-14.2,8.7-23.4
		c-0.2-36.7-0.1-73.5,0.1-110.2c0-7.5-0.8-14.2-7.5-18.8c-0.9-0.7-1.4-2.2-3.3-5.2c12.4,0.6,23.2,0.7,33.9,1.9
		c1.9,0.2,3.9,5.1,4.7,8c6.6,23.7,12.9,47.4,19.3,71.1c0.7,2.6,1.8,5.1,2.6,7.7C600.3,298.2,600.9,298.1,601.5,298.1z"/>
	<path d="M291.4,265.6c-0.1,2.7-0.4,5.4-0.4,8.1c0.1,24.8,0.4,49.7,0.2,74.4c-0.1,7.7,1.1,14.1,8.4,18.2c0.9,0.5,1.3,1.8,2.7,3.6
		c-12.6,0-24.3,0-35.9,0c0-1.1-0.1-1.9,0.1-2c9.9-6.1,8.8-15.8,8.7-25.3c-0.4-31.5-0.5-63-0.5-94.5c0-7.2-0.1-13.9-7.7-17.7
		c-0.4-0.2-0.7-0.7-0.8-1.2c-0.1-0.5,0-0.9,0-2.7c10-1.3,20.4-3.1,30.6-3.6c1.8-0.1,4.7,4.2,5.7,6.9c6.2,19.5,12.1,39.2,18.1,58.9
		c1.4,4.5,2.8,8.9,6,13.3c0.1-2.6,0.5-5.3,0.5-7.9c0-17.9-0.4-35.8-0.1-53.7c0.1-6.7-0.8-12.4-7.7-15.4c-1.3-0.6-2.6-1.3-3.9-1.9
		c0.4-1.1,0.8-2.1,1.2-3.1c11.8-1.1,23.4-2.2,35.2-3.3c0.2,1.6,0.5,2.4,0.2,2.5c-9.7,7.1-9.2,17.3-9.1,27.7
		c0.5,38.1,0.5,76.4,0.6,114.5c0,3.6,1.8,8.5-4.7,9.3c-9.3,1.1-13.2-0.2-15.2-6.7c-9.3-30.1-18.4-60.3-27.5-90.4
		c-0.8-2.8-1.9-5.7-2.7-8.5C292.6,265.5,292,265.6,291.4,265.6z"/>
	<path d="M363.1,214.9c16.1-0.2,32.3-1.4,48.3-0.4c9.7,0.7,17.2,7.8,21,16.7c3.8,8.9,7.2,18.4,8.6,27.8c3.8,25.4,3.2,51-2.4,76
		c-1.5,7.1-4,14.5-8.1,20.4c-3.8,5.3-9.8,11.5-15.7,12.5c-16.7,2.6-33.9,2.7-51,3.9c-0.2-0.8-0.4-1.6-0.6-2.4c0.7-1.1,1.1-2.7,2-3.2
		c7.8-4.1,8.7-10.7,8.6-18.7c-0.5-36.7-0.6-73.5-0.5-110.2c0-7.5-0.9-13.7-8.6-17.2c-0.9-0.5-1.5-1.6-2.2-2.5
		C362.8,216.9,363,216,363.1,214.9z M394.5,292c0.1,0,0.2,0,0.4,0c0,20-0.1,40,0.1,60.2c0,2.6,1.1,7.3,2.1,7.4
		c3.3,0.5,8.1,0.2,9.9-1.8c3.8-4.4,7.2-9.8,8.5-15.2c6.6-27.4,5.7-55.4,3.5-83.2c-0.6-7.8-2.2-15.7-4.7-23.1
		c-1.4-4.1-4.7-8.5-8.4-10.9c-6.7-4.5-11.3-1.4-11.3,6.6C394.5,252,394.5,272,394.5,292z"/>
	<path d="M508.3,267.4c0,14.7,0,29.5,0,44.3c-0.6,0.2-1.3,0.6-1.9,0.8c-2.4-3.8-4.4-8-7.3-11.3c-2.2-2.6-5.7-4-8.6-6
		c-0.9,2.8-2.8,5.7-2.8,8.6c-0.2,16.2,0.1,32.5-0.2,48.6c-0.1,5.9,1.9,7.9,7.9,7.9c13.4-0.2,13.5,0,18-12.4c3.3-8.9,6.5-18,9.8-27
		c0.8-2.1,1.8-4.1,2.7-6.1c0.7,0.1,1.3,0.1,2,0.2c0.4,1.9,0.8,3.6,0.9,5.5c0.1,14.6,0,29.1,0.1,43.7c0,4.4-1.3,6.7-6.1,6.7
		c-21.1-0.1-42.1,0-63.2-0.1c-1.3,0-2.6-0.7-3.8-1.1c0.2-0.9,0.1-1.6,0.4-1.8c10.9-6,10.4-16.1,10.4-26.6c-0.4-36-0.4-72-0.1-108.1
		c0-7.8-1.1-14.1-8.5-18c-1.1-0.6-1.8-2-3.4-4c3.1-0.5,4.9-0.9,6.9-1.1c19.9-0.2,39.7-0.4,59.6-0.8c5.9-0.1,8,2,7.9,8
		c-0.4,13.8-0.1,27.7-0.1,41.6c0,2-0.5,4-2.5,6.5c-1.2-2.1-2.6-4.1-3.4-6.2c-4-10.5-7.7-21.1-11.7-31.5c-2.4-6.4-17-10.5-22-6.1
		c-1.2,1.1-1.6,3.4-1.6,5.2c-0.1,17-0.1,33.9,0.1,50.9c0,1.9,1.5,5.1,2.9,5.4c1.8,0.5,4.8-0.7,6.1-2.2c3.5-4.4,6.5-9.2,9.8-13.9
		C507.1,267,507.7,267.3,508.3,267.4z"/>
	<path d="M771.5,280.7c0,12.6,0,25.2,0,37.8c-0.6,0.2-1.3,0.6-1.9,0.8c-2.5-3.5-4.5-7.4-7.4-10.6c-2.2-2.4-5.5-3.6-8.4-5.5
		c-1.1,2.8-2.9,5.7-2.9,8.5c-0.4,14-0.1,28.1-0.5,42.3c-0.1,5.2,1.8,7.1,7.1,7.2c14.4,0.4,14.5,0.5,20-12.9
		c2.8-6.8,5.7-13.7,8.7-20.4c0.8-1.8,2-3.4,3.1-5.2c0.6,0.1,1.2,0.2,1.8,0.5c0.2,3.2,0.6,6.4,0.6,9.5c0,10.5-0.1,21-0.1,31.4
		c0,3.8-0.7,6.7-5.3,6.7c-21.3,0-42.6,0-63.9-0.1c-1.1,0-2.1-0.7-3.3-1.2c0.4-1.1,0.5-2,0.9-2.2c9.8-4.7,9.8-13.2,9.8-22.4
		c-0.1-33,0-65.8,0.5-98.8c0.1-8-0.8-14.7-8.4-19c-0.8-0.5-1.3-1.3-1.9-2.1c-0.2-0.4,0-0.9,0-2.2c1.8,0,3.5-0.2,5.3,0
		c19.9,2.8,39.8,5.8,59.7,8.5c5.3,0.7,7.4,3.1,7.2,8.5c-0.4,11.2-0.1,22.4-0.2,33.7c0,2-0.5,3.9-0.8,5.9c-0.6,0.1-1.2,0.2-1.9,0.4
		c-1.1-1.9-2.4-3.8-3.2-5.8c-3.8-9.3-7.3-18.7-11.1-27.9c-2.6-6.2-15.1-11.7-21.2-8.8c-1.4,0.6-2.6,3.3-2.6,5.2
		c-0.2,14.8-0.4,29.5-0.2,44.4c0,2,1.5,5.3,2.8,5.5c2.1,0.5,5.3-0.5,6.8-2c3.4-3.1,6.1-6.9,9.1-10.6
		C770.5,280.1,771,280.5,771.5,280.7z"/>
	<path d="M637.7,369.8c0.2-0.9,0.2-2,0.7-2.2c10.8-5.5,10.1-15.2,10.1-25.2c-0.1-34.4,0-68.6,0.5-103c0.1-8.5-0.8-15.7-8.8-20.1
		c-0.9-0.5-1.4-1.6-1.8-4.6c13.9,1.2,27.9,2.4,43,3.6c-1.4,2.1-1.8,3.8-2.7,4.2c-7.5,3.4-8.7,9.4-8.7,17.1
		c0.1,37-0.2,73.9-0.2,110.9c0,3.5-2.4,8.6,3.6,10.2c7.5,2,12.9-0.4,15.9-6.8c4.4-9.8,8.6-19.7,13.1-29.4c0.8-1.9,2-3.5,3.6-6.1
		c0.9,1.4,1.6,2,1.6,2.6c0,15.1,0.2,30-0.2,45.1c0,1.8-3.3,5.1-5.2,5.1c-20.6,0.4-41.1,0.1-61.7,0.1
		C639.4,370.9,638.6,370.2,637.7,369.8z"/>
	<path d="M885,370.3c-11.9,0-24.4,0-36.7,0c2.6-4.1,6.7-7.8,6.8-11.5c0.1-5.4-1.3-14.2-4.6-15.7c-6.4-2.7-14.8-2.5-21.8-0.7
		c-2.5,0.7-4,9.4-3.9,14.4c0.1,4.5,3.2,8.8,5.1,13.5c-8.8,0-18.7,0-29.5,0c13.5-10.5,12.6-25.7,15.8-39c6.5-27.3,12-55,18.1-82.4
		c0.7-3.2,0-8,5.5-7.5c5.2,0.5,10.2,1.1,11.7,8c4.9,23.5,10.2,47,15.5,70.5c2.7,12.1,4.9,24.4,8.6,36.1
		C877,361.2,881.7,365.5,885,370.3z M840.9,293.3c-0.8,0.1-1.8,0.1-2.6,0.2c-2.4,10.8-4.9,21.7-7.1,32.5c-0.2,1.4,1.5,4.2,2.8,4.6
		c3.6,0.8,7.5,0.9,11.3,0.7c1.1-0.1,3.2-2.6,2.9-3.6C846,316.3,843.4,304.8,840.9,293.3z"/>
	<path d="M201.5,325.3c0,4.8,0,9.7,0,14.6c0,8.4,0.4,16.7-0.2,25.1c-0.1,2.1-3.2,5.8-4.9,5.8c-20.6,0.4-41.1,0.2-61.7,0.1
		c-0.6,0-1.2-0.6-1.8-0.9c0.1-0.6,0-1.4,0.2-1.4c10.7-4.2,9.7-13.3,9.5-22.1c-0.2-24.1-0.1-48.1-0.2-72.3c0-8.5,2.9-18.5-11.4-20.7
		c0.5-0.8,0.9-1.6,1.4-2.5c13.4-2.8,26.8-5.7,40.6-8.6c0,1.8,0.2,2.5,0,2.6c-9.8,6-10,15.4-9.9,25.5c0.5,27.4,0.1,54.9,0.5,82.3
		c0,3.2,1.9,8.7,3.6,9.1c5.5,1.1,12.1,2.2,15.5-4.9c4.4-9.3,8.8-18.5,13.4-27.7c0.7-1.5,2-2.8,3.1-4.2
		C200.1,325,200.8,325.2,201.5,325.3z"/>
	<path d="M255.4,370.2c-14,0-27.8,0-41.6,0c0.1-0.9,0-1.8,0.2-1.8c11.3-5.3,9.9-15.3,9.8-25.1c-0.2-29.8-0.5-59.6-0.2-89.4
		c0-7.2-1.2-12.7-8.7-15.1c-0.6-0.2-1.1-0.9-1.5-1.4c-0.1-0.1-0.1-0.5-0.2-2.2c13.4-2.2,27-4.5,42.5-7.2c-1.9,3.1-2.2,4.6-3.2,5.2
		c-7.8,4.6-8.2,11.8-8.1,19.8c0.4,31.9,0.6,63.9,0.4,95.8c0,8,1.1,14.7,9.2,18.2c0.4,0.2,0.7,0.6,0.9,1.1
		C255.1,368.4,255.1,368.9,255.4,370.2z"/>
</g>
<g>
	<path d="M245.5,398.8c-1.1-6.1-2-9.3-3.2-11.4c-1.5-2.8-3.2-3.8-10.4-3.8h-6.4v59.2c0,9.7,0.8,11.1,9.7,11.8v3.5h-27.7v-3.5
		c8.6-0.7,9.4-2.1,9.4-11.8v-59.2h-5.4c-8.1,0-10.1,1.2-11.3,3.8c-1.2,2.1-2,5.7-3.2,11.4h-2.8c0.5-7.9,0.8-16,1.1-22.7h2
		c1.4,3.1,2.6,3.1,5.3,3.1h37.9c2.6,0,3.4-0.7,4.8-3.1h2c0,5.5,0.5,15,0.9,22.2L245.5,398.8z"/>
	<path d="M284.1,458.1v-3.5c5.8-1.1,6.6-2.1,5.4-7.1c-1.3-4.8-3.1-10.9-5.1-17.9h-20.1c-1.5,5.5-2.8,10.4-4,15.2
		c-2,7.4-1.3,8.8,5.8,9.8v3.5h-20.6v-3.5c6.1-1.3,7.4-2.1,10.7-12.8l19.7-63.5l3.3-1.1c6,21.5,12,43.1,18.2,64.5
		c3.1,10.7,4.4,12,10.4,12.8v3.5H284.1z M275,393.9h-0.2c-3.1,10-5.9,20.5-8.7,30.3h17.2L275,393.9z"/>
	<path d="M361.5,438.4c-0.6,4.6-2.5,15.8-3.3,19.7h-45.9v-3.5c8.5-0.8,9.3-2,9.3-12v-47.7c0-11.2-0.8-11.4-8.1-12.4v-3.6h42.4
		c0.1,3.2,0.5,11.2,0.8,18l-2.8,0.5c-0.8-5.1-1.9-7.9-3.1-10.6c-1.4-2.7-3.9-3.5-10.4-3.5h-6.9c-3.1,0-3.3,0.4-3.3,4v27.3h8.6
		c8.4,0,9.1-0.9,10.2-9.2h2.8v23.9H349c-1.3-8.9-2-9.5-10.2-9.5h-8.5v22.4c0,5.8,0.5,8.5,2.2,10c1.8,1.4,5.3,1.4,9.5,1.4
		c6.8,0,9.7-0.8,11.8-4c1.6-2.6,3.4-6.8,4.7-11.8L361.5,438.4z"/>
</g>
<g>
	<path d="M477.8,438.4c-0.7,4.6-2.8,15.8-3.8,19.7h-53.3v-3.5c9.8-0.8,10.7-2,10.7-12v-47.7c0-11.2-0.9-11.4-9.4-12.4v-3.6h49.2
		c0.1,3.2,0.6,11.2,1.1,18l-3.3,0.5c-1.1-5.1-2.2-7.9-3.5-10.6c-1.6-2.7-4.6-3.5-12-3.5h-8c-3.5,0-3.8,0.4-3.8,4v27.3h9.9
		c9.8,0,10.5-0.9,11.9-9.2h3.3v23.9h-3.4c-1.5-8.9-2.4-9.5-11.9-9.5h-9.9v22.4c0,5.8,0.6,8.5,2.6,10c2.1,1.4,6.1,1.4,11.1,1.4
		c7.9,0,11.2-0.8,13.7-4c1.9-2.6,3.9-6.8,5.5-11.8L477.8,438.4z"/>
</g>
<g>
	<path d="M537.2,382.8c-4.7,0.5-6.7,2.2-7.1,7.2c-0.2,3.4-0.5,8.4-0.5,19.3v9.5c0,14.4-1.5,25-6.1,32.4c-3.8,5.9-9.2,8.6-14.7,8.6
		c-4.9,0-9.7-1.6-13.2-5.9c-4.9-5.7-7.3-14.8-7.3-29.5v-29c0-11.2-0.7-11.8-7.1-12.6v-3.6h21.5v3.6c-6.2,0.6-6.9,1.3-6.9,12.6v26.5
		c0,20,5.4,31,15.2,31c11.4,0,15.3-14.1,15.3-34.4v-9.2c0-10.9-0.2-15.8-0.6-19.7c-0.5-4.7-2.2-6.4-7.8-6.9V379h19.4v3.8H537.2z"/>
</g>
<g>
	<path d="M594.2,382.8c-4.2,0.4-6,1.8-6.4,7.3c-0.2,3.9-0.5,9.4-0.5,20.7v48.6h-2.5l-33.2-63.3h-0.1v29.7c0,11.2,0.4,17,0.5,20.5
		c0.4,6.4,2.1,7.8,7.3,8.5v3.5h-18.1v-3.5c4.4-0.5,6.2-2.1,6.6-8.1c0.4-3.8,0.6-9.5,0.6-20.8v-26.1c0-8.9-0.2-9.5-1.6-12.5
		c-1.5-2.9-3.2-4-6.7-4.4v-3.6h11.7l32.3,60h0.2v-28.4c0-11.3-0.4-16.8-0.5-20.2c-0.4-5.8-2.1-7.3-7.5-7.8v-3.6h18L594.2,382.8
		L594.2,382.8z"/>
</g>
<g>
	<path d="M702.2,438.6c-0.7,4.1-2.8,15.9-3.9,19.7h-47.8v-3.5c8.8-0.7,9.8-1.5,9.8-12.2v-47.7c0-10.6-0.7-11.3-9.3-12v-3.6h28v3.6
		c-8.1,0.7-9.2,1.3-9.2,12v47.3c0,6.6,0.5,8.9,2.5,10.2c2,1.3,5.5,1.5,9.7,1.5c5.4,0,9.2-0.7,11.5-3.9c1.9-2.4,3.9-6.4,5.7-12.1
		L702.2,438.6z"/>
	<path d="M760.7,438.4c-0.7,4.6-2.7,15.8-3.6,19.7h-50.9v-3.5c9.3-0.8,10.2-2,10.2-12v-47.7c0-11.2-0.9-11.4-8.9-12.4v-3.6h47
		c0.1,3.2,0.6,11.2,0.9,18l-3.2,0.5c-0.9-5.1-2.1-7.9-3.4-10.6c-1.5-2.7-4.4-3.5-11.5-3.5h-7.7c-3.4,0-3.6,0.4-3.6,4v27.3h9.5
		c9.3,0,10-0.9,11.3-9.2h3.1v23.9h-3.1c-1.4-8.9-2.2-9.5-11.3-9.5H726v22.4c0,5.8,0.6,8.5,2.5,10c2,1.4,5.9,1.4,10.6,1.4
		c7.5,0,10.7-0.8,13.1-4c1.8-2.6,3.8-6.8,5.3-11.8L760.7,438.4z"/>
	<path d="M820.3,438.4c-0.7,4.6-2.7,15.8-3.6,19.7h-50.9v-3.5c9.3-0.8,10.2-2,10.2-12v-47.7c0-11.2-0.9-11.4-8.9-12.4v-3.6h47
		c0.1,3.2,0.6,11.2,0.9,18l-3.2,0.5c-0.9-5.1-2.1-7.9-3.4-10.6c-1.5-2.7-4.4-3.5-11.5-3.5h-7.7c-3.4,0-3.6,0.4-3.6,4v27.3h9.5
		c9.3,0,10-0.9,11.3-9.2h3.1v23.9h-3.1c-1.4-8.9-2.2-9.5-11.3-9.5h-9.5v22.4c0,5.8,0.6,8.5,2.5,10c2,1.4,5.9,1.4,10.6,1.4
		c7.5,0,10.7-0.8,13.1-4c1.8-2.6,3.8-6.8,5.3-11.8L820.3,438.4z"/>
</g>
<rect x="83.1" y="623.5" width="280.3" height="14.7"/>
<rect x="83.1" y="646.5" width="280.3" height="6.6"/>
<rect x="643.6" y="623.5" width="280.3" height="14.7"/>
<rect x="643.6" y="646.5" width="280.3" height="6.6"/>
<polygon points="414.9,710.4 455.1,677.7 455.1,623.5 374.8,623.5 374.8,677.7 "/>
<polygon points="590.3,710.4 630.5,677.7 630.5,623.5 550.2,623.5 550.2,677.7 "/>
<polygon points="525.6,623.5 525.6,648.1 483,648.1 483,623.5 460,623.5 460,693.8 479.7,709.8 479.7,664.5 491.1,664.5 
	491.1,719.2 502.4,728.4 514.1,718.9 514.1,664.5 525.6,664.5 525.6,709.6 544.9,693.8 544.9,623.5 "/>
<g>
	<path d="M94,609.1v-4.8c7.5,0,13.8-0.9,13.8-10.6V486.9c0-8.1-2.5-11.2-10.2-11.2c-15.7,0-22,14.8-27.3,28.4l-1.6-1.5l7.1-31.7h72
		l7.2,33.1l-2.1,1.3c-5.9-15.4-10.1-29.5-25.2-29.5c-8.4,0-12.2,3.1-12.2,11.2v106.8c0,9.7,4.8,10.6,13.8,10.6v4.8L94,609.1
		L94,609.1z"/>
	<path d="M208.8,467.4l30,122.8c2.2,10.6,5.8,14,12.1,14v4.8h-30.8v-4.8c8,0,11.7-1.5,11.7-7.5c0-1.5-0.2-3.4-0.7-5.8l-7.9-32.3
		h-36.6l-6.6,27.9c-0.7,3.6-1.2,6.5-1.2,8.8c0,6.9,3.5,8.8,11.5,8.8v4.8h-26.5v-4.8c6.7,0,9.1-2.5,12.8-20l25.4-112.4L208.8,467.4z
		 M204.5,480.5l-16.6,72.6h34L204.5,480.5z"/>
	<path d="M260,609v-4.8c8.2,0,11.5-4,11.5-13.3v-103c0-8.8-3.3-12.2-11.5-12.2v-4.8h63.8l8.5,32.6l-1.8,1.9
		c-6.1-11.8-10.9-29.8-29.8-29.8h-11.9c-6.4,0-9.7,3.4-9.7,12.2V534h18.5c8.5,0,13.1-5.8,13.1-24h2.9v53.8h-2.9
		c0-17.1-4.6-24.6-13.1-24.6h-18.5v51.4c0,9.2,3.3,13.3,9.8,13.3h11.4c14.1,0,22.7-9.2,32.5-30.5l2.2,1.5l-8.2,33.8H260V609z"/>
	<path d="M346.5,609v-4.8c9.5,0,11.5-3.6,11.5-11.2V488.5c0-10.6-1.8-12.8-11.5-12.8v-4.8h30.8v4.8c-9.1,0-11.7,2.4-11.7,12.5v59.6
		l41.6-59.3c0.9-1.8,1.6-3.4,1.6-5.4c0-3.9-3.1-7.3-11.7-7.3v-4.8h29.7v4.8c-5.2,0-8.4,3.6-14,11.9l-24.5,35.2l30.4,70.3
		c3.6,9.2,4.8,11.2,13.4,11.2v4.8h-32.6v-4.8c7.3,0,11.8-0.8,11.8-5.2c0-0.9-0.4-2.4-0.8-3.9L383,530.4l-17.3,25v37.8
		c0,7.3,2.1,10.9,11.7,10.9v4.8h-30.8V609z"/>
	<path d="M441.8,470.9h30.7v4.6c-8.5,0-11.5,1.2-11.5,6.1c0,0.9,0.1,2.4,0.4,3.6l18.1,100.9l16.6-90.3l-2.1-12.5
		c-1.2-6-2.8-7.9-11.7-7.9v-4.6H513v4.6c-8.5,0-11.5,1.2-11.5,6.1c0,0.9,0.1,2.4,0.4,3.6l18.1,100.9l17.8-97.4
		c0.4-1.9,0.5-3.6,0.5-5.2c0-5.4-2.7-8.1-11.5-8.1v-4.6h26.5v4.6c-8.7,0-10.1,3.3-12,13.3l-22.5,123.3h-2.1l-19-107.4l-19.4,107.4
		H476l-22.7-128.7c-1.1-6-3.2-7.9-11.5-7.9V470.9z"/>
	<path d="M642.5,540c0,36.1-12.6,72-38.8,72c-25.2,0-37.7-35.9-37.7-72c0-36.3,12.5-72.4,37.7-72.4
		C629.8,467.6,642.5,503.8,642.5,540z M574.1,540c0,33.7,9.9,67.2,29.5,67.2c20.6,0,30.5-33.7,30.5-67.2c0-33.7-9.9-67.5-30.5-67.5
		C583.9,472.6,574.1,506.5,574.1,540z"/>
	<path d="M654.9,609v-4.8c8.6,0,11.5-3.6,11.5-13.3V489c0-9.7-2.9-13.3-11.5-13.3v-4.8h16.4l55.4,115.6V486.1
		c0-7.5-3.2-10.6-12.6-10.6v-4.8h27.8v4.8c-8,0-11.7,3.3-11.7,10.6v123.7h-2L670,487.3v103.5c0,9.7,2.7,13.3,12.6,13.3v4.8h-27.8
		V609z"/>
	<path d="M750.9,609v-4.9c8.5,0,11.5-3.6,11.5-14V488.5c0-8.8-3.1-12.7-11.5-12.7v-4.8h37.7c29.7,0,42,34.6,42,69
		c0,34.7-12.4,69.1-42,69.1H750.9z M770.2,590c0,10.4,3.1,14,9.8,14h8.7c22.5,0,33.8-31.9,33.8-64.2c0-32-11.3-64.2-33.8-64.2H780
		c-6.7,0-9.8,3.9-9.8,12.7V590z"/>
	<path d="M920.8,540c0,36.1-12.6,72-38.8,72c-25.2,0-37.7-35.9-37.7-72c0-36.3,12.5-72.4,37.7-72.4
		C908.2,467.6,920.8,503.8,920.8,540z M852.4,540c0,33.7,9.9,67.2,29.5,67.2c20.6,0,30.5-33.7,30.5-67.2c0-33.7-9.9-67.5-30.5-67.5
		C862.3,472.6,852.4,506.5,852.4,540z"/>
</g>
<path d="M484.2,172.9c0-15.4,12.5-27.9,27.9-27.9c15.4,0,27.9,12.5,27.9,27.9c0,2.8-0.5,5.7-1.2,8.2h84.8l-2.7-13.9h-30.7l-38.7,0.1
	l37.8-8.4l28.7-6.4l-1.8-9.2l-28.7,6.5l-37.9,8.5l34.7-17.3l28.6-14.2l-2-10.2l-29,14.8l-34.5,17.7l29.3-25.4L606,98.2l1.8,2.6
	l-1.2-5.8l-13.4-7.5l-27.3,27.1l-29.3,29.1l22-35l19-30l-12.6-7.1l-18,30.5l-21.2,35.6l12.5-39.4L549.4,63l-12.9-7.3l-8.4,33
	l-11.2,43.9l1.9-45.3l1.8-40.5l-9.3-5.2l-10.6,6l1.6,39.6l1.9,45.3L493,88.6l-8.1-32L472,63.9l10.8,34.3l12.5,39.4L474.3,102
	l-17.4-29.4l-12.5,7.2l18.2,29l22,35l-29.3-29.1l-26.3-26l-11.3,6.5l-0.8,4.5l27.7,24.1l29.3,25.4l-34.5-17.7L413.3,118l-2,10.2
	l25.8,12.8l34.7,17.3l-37.9-8.5l-25.8-5.8l-1.8,9.2l25.8,5.7l37.8,8.4l-38.7-0.1h-27.5l-2.7,13.9h84.8
	C484.6,178.4,484.2,175.7,484.2,172.9z"/>
<path d="M811.5,80.1c-12.4-2.7-19.1,5.2-26.7,12.1c-14.2,12.8-30.4,21.2-49.9,25.5c-28.1,6.4-53.3,0.9-78.3-10.6
	c-8.6-4-15.8-10.1-20.8-19.1c10.8,3.6,19.8-1.9,29.4-4.2c4.9-1.2,10.6,0,15.9,0.1c0.7,0,1.5,0.8,2,0.7c14.6-6.6,27,5.3,41.2,5.5
	c8.6,0.1,16.4,1.4,24.3-2.8c1.2-0.6,2.9-0.8,4.2-0.5c6.7,1.9,13.1,2.7,17.3-4.7c0.5-0.8,2.6-0.8,4-1.2c7.5-1.6,15.1-3.6,22.7-4.7
	c4.8-0.7,9.8,0,14.7,0.1C811.3,77.7,811.4,78.9,811.5,80.1z M769.9,97.9c-0.6-0.9-1.2-1.8-1.8-2.7c-3.3,2.1-6.5,4.5-10,6.2
	c-2.4,1.3-5.2,1.9-7.9,2.5c-3.2,0.7-6.5,0.9-9.7,1.4c-11.1,1.6-22.2,3.4-33.3,5.1c-0.7,0.1-1.4-0.4-2.1-0.5
	c-3.2-0.5-6.2-1.1-9.4-1.4c-2.2-0.2-4.5,0-6.6,0c-0.1-0.6-0.2-1.2-0.5-1.8c2.5-1.6,4.9-3.3,8.8-6c-8.6,2.5-15.4,4.5-22.4,6.4
	c0,0.6,0,1.2,0,1.9c7.2,1.6,14.2,4.4,21.4,4.6c19.8,0.7,39.6-0.7,58.4-7.1C760.3,104.6,764.9,100.7,769.9,97.9z"/>
<path d="M211.9,77.9c4.1-0.9,8.5-2.9,12.4-2.5c9.5,1.3,18.8,3.9,28.3,5.9c0.5,0.1,1.2,0.1,1.3,0.5c4.6,8.2,11.8,6.7,19.2,5.3
	c1.9-0.4,4.2,0.8,6,1.8c6.1,3.2,12,5.4,19,1.3c2.5-1.5,6.6-0.1,9.7-0.8c5.9-1.4,11.7-3.5,17.4-5.3c0.7-0.2,1.4-0.7,2-0.6
	c11.3,0.4,22.7,0,33.9,1.3c8.9,0.9,17.7,3.8,27,5.8c-1.2,1.4-3.1,4.4-5.5,6.5c-18.5,16-40.5,22.7-64.6,23.2c-2.8,0-5.5-1.2-8.4-1.5
	c-5.5-0.8-11.2-2.7-16.6-2.1c-11.9,1.4-22.1-1.8-31.4-8.8c-9.2-6.9-18.6-13.8-27.7-21.1c-6.4-5.2-12.9-8.5-21.8-6
	C211.9,79.6,211.9,78.7,211.9,77.9z M335.6,106.6c-1.1,0.9-1.4,1.6-1.6,1.5c-9.1-1.6-18.5,4.6-27.5-0.8c-0.7-0.5-2.4-0.8-2.7-0.5
	c-6.1,6-11.9,0.4-17.7-0.6c-3.3-0.6-6.4-1.8-9.5-2.7c-4.1-1.2-8.4-2-12.4-3.5c-3.2-1.3-6-3.4-9.1-5.2c-0.5,0.7-0.8,1.4-1.3,2.1
	c2.4,1.8,4.6,4,7.2,5.1c8.5,3.4,17,6.9,25.8,9.3c6.8,1.8,14.4,3.5,21.1,2.2c9.5-1.8,19.5,2.1,28.6-3.2c1.2-0.7,3.3-0.1,4.8,0.5
	c4.5,1.9,6.5-0.2,7.9-4c-7.4-2-14.4-4-21.3-5.9c-0.1,0.2-0.2,0.5-0.4,0.7C330.2,103.3,332.8,104.8,335.6,106.6z"/>
</svg>
