<?xml version="1.0" encoding="utf-8"?>
<!-- Generator: Adobe Illustrator 27.0.0, SVG Export Plug-In . SVG Version: 6.00 Build 0)  -->
<!DOCTYPE svg PUBLIC "-//W3C//DTD SVG 1.1//EN" "http://www.w3.org/Graphics/SVG/1.1/DTD/svg11.dtd" [
	<!ENTITY ns_extend "http://ns.adobe.com/Extensibility/1.0/">
	<!ENTITY ns_ai "http://ns.adobe.com/AdobeIllustrator/10.0/">
	<!ENTITY ns_graphs "http://ns.adobe.com/Graphs/1.0/">
	<!ENTITY ns_vars "http://ns.adobe.com/Variables/1.0/">
	<!ENTITY ns_imrep "http://ns.adobe.com/ImageReplacement/1.0/">
	<!ENTITY ns_sfw "http://ns.adobe.com/SaveForWeb/1.0/">
	<!ENTITY ns_custom "http://ns.adobe.com/GenericCustomNamespace/1.0/">
	<!ENTITY ns_adobe_xpath "http://ns.adobe.com/XPath/1.0/">
]>
<svg version="1.1" id="Layer_1" xmlns:x="&ns_extend;" xmlns:i="&ns_ai;" xmlns:graph="&ns_graphs;"
	 xmlns="http://www.w3.org/2000/svg" xmlns:xlink="http://www.w3.org/1999/xlink" x="0px" y="0px" viewBox="0 0 723 720"
	 style="enable-background:new 0 0 723 720;" xml:space="preserve">
<style type="text/css">
	.st0{fill:#E20000;}
</style>
<metadata>
	<sfw  xmlns="&ns_sfw;">
		<slices></slices>
		<sliceSourceBounds  bottomLeftOrigin="true" height="720.1" width="711.5" x="153.1" y="-862.8"></sliceSourceBounds>
	</sfw>
</metadata>
<g id="Bj14z3_00000003084488558981603980000008975305800152723338_">
	<g>
		<path d="M353.1,479.4c7.7-11.3,15-22,24-35.4c-6,3-9.5,4.7-12.9,6.4c-0.9-0.5-1.7-1-2.6-1.5c26.1-39.5,52.2-79,80.2-121.3
			c-44.9-1-83.1,10.2-120.8,29.6c-8-13.1-5.5-26.3,0-38c4.3-9.1,1.6-13.7-3.8-20.2c-7.7-9.4-15.2-19.4-20.5-30.2
			c-6.3-13-1.8-33,6.9-34.4c14.1-2.3,23.9,6.6,28.9,18.2c4.9,11.4,6.5,24.3,9.8,37.3c61-33.5,127.8-32.2,195.4-24.8
			c0.3,1.7,0.5,3.4,0.8,5.1c-30.5,3.9-60.9,7.9-91.4,11.8c54.8,10.3,111.2,15.3,153.7,59.4c-5.2-1.5-10.4-3-15.6-4.6
			c-34.8-10.7-70.1-18.7-106.9-14.8c-17.7,1.9-18.2,3.7-11.8,20.3c1.5,3.8,1.1,10.4-1.4,13.2c-35.8,41.9-72,83.4-108.2,124.9
			C356.8,480.5,356,480.2,353.1,479.4z"/>
		<g>
			<path class="st0" d="M512.8,158.3c-33.1,24.4-43.4,57-52.8,90.1c-1.6,0.6-3.2,1.2-4.8,1.9c-6.3-12.1-14.5-23.6-18.3-36.5
				c-5.3-17.5-6.3-36.3-10.9-54c-3.8-14.5-10.1-28.3-15.3-42.4c-2.6,0.3-5.2,0.7-7.8,1c-4.2,26.3-8.5,52.6-12.5,77.7
				c-31.7-27.8-64.5-56.4-98.8-86.5c-26.3,39.8-21.7,76.9-6,115.5c-16.5-11.2-31.7-21.5-48.6-32.9c-11.4,30.3,10.9,46.3,20.2,67.2
				c-43.1-18.3-68.6-84.6-51.6-134.7c7.1,9.7,12.8,19.7,20.6,27.6c15.9,16.3,27.4,13.8,35.9-7.2c11.9-29.6,7.8-59.5-1.8-88.4
				c-6.4-19.3-16.1-37.6-24.6-57c20.2,5.8,34.8,19.7,46.9,36.3c14.1,19.4,25.7,40.7,40.9,59c10.8,13,25.4,22.9,39,33.2
				c10.1,7.6,18.5,2.3,18.7-8.5c0.4-18.6-1-37.4-4-55.7c-1.8-11.1-7.7-21.5-9.3-34.4c17.8,12.1,36.2,23.5,53.1,36.6
				c19.7,15.3,28.9,36.6,28.5,61.5c-0.3,21.2-2.1,42.3-2.6,63.5c-0.2,9.1,1.2,18.2,1.9,28.6c28.3-46,55.3-89.8,83-134.9
				c2.9,16.6,6.1,34.3,9.6,53.9c26.7-24.7,66.1-32.4,82-69.6c5.7,36.6,10.2,72.4-11.9,107.4c26.2-1.6,35.1-27,59.1-37.2
				c-5.5,10.2-9.1,16.7-12.6,23.3c-18.6,34.8-46.8,60.9-78,83.8c-14.8,10.9-31.4,16.9-54.5,7.4c24.7-17.5,47.3-33.5,69.9-49.4
				c-0.4-0.9-0.8-1.9-1.2-2.8c-9.4,2.3-18.7,4.6-29,7.2c-6.1-28.7,23-42.8,23.9-68.9c-35.4,5.6-48,40.6-76.3,56.6
				C512.8,183.3,512.8,172.9,512.8,158.3z"/>
			<path class="st0" d="M68.2,318c41,21.4,79.9,39,129.5,20.8c-23.4-22.2-44.8-42.5-66.4-63c41.4,6,84.9-6.5,126.3,8.7
				c0,2,0.1,4,0.1,6c-21.5,0-43.1,0-67.6,0c7.7,29.6,28.4,40.1,53.5,52.1c-28.3,4.4-51.7,8-75.1,11.6c0.2,1.3,0.3,2.6,0.5,3.9
				c12.8,2.6,25.6,4.7,38.3,7.8c5.3,1.3,10.3,4.3,15.1,7.1c12.3,7.3,24.2,15.9,23.1,32c-1,15.2-14.1,20.1-26.1,25
				c-2.4,1-4.7,2.4-7.1,3.7c-0.1,1.6-0.2,3.3-0.3,4.9c10.3,1.2,20.7,4,30.8,3.3c21.6-1.4,43.1-6.1,64.7-6.8
				c23.7-0.8,32.3,9.1,33.7,37.3c-21-31.8-48.3-24.8-74.1-15.1c-40.5,15.2-75.8,10-108.9-18.4c-12.7-10.9-29.1-17.5-45.1-29.6
				c9.5,0,19.3-1.4,28.5,0.3c13.6,2.6,26.7,8.2,40.2,11.1c12.6,2.7,28.2,1.7,30.3-12.4c2.1-13.9-13-17.3-25-18.6
				c-8.8-1-17.8-0.9-26.7-1.4C115.3,385.7,87.8,359.7,68.2,318z"/>
		</g>
		<g>
			<path d="M35,536.1v62.8h-11v-62.8H7.1v-10.4h44.6v10.4H35z"/>
			<path d="M107.9,581.1H76.6l-8.2,17.8H56.5l36.2-77.8l34.9,77.8h-12.1L107.9,581.1z M103.4,570.7l-10.9-24.9l-11.4,24.9H103.4z"/>
			<path d="M184.5,536.1h-29.3v17.6h28.5v10.4h-28.5v24.5h29.3v10.4h-40.4v-73.2h40.4V536.1z"/>
			<path d="M217.3,554.9l28.5-29.2h14.7l-33.1,33.1l33.3,40h-14.8l-26.4-32.6l-2.3,2.3v30.3h-11v-73.2h11V554.9z"/>
			<path d="M281.4,525.7l19.1,48.9l19.9-52.5l19.1,52.5l20.2-48.9h12L339,603.5l-18.8-51.9l-19.6,51.9l-31.1-77.9H281.4z"/>
			<path d="M381.1,562c0-10.3,3.8-19.1,11.3-26.5c7.5-7.4,16.6-11.1,27.1-11.1c10.4,0,19.4,3.7,26.8,11.2
				c7.5,7.5,11.2,16.4,11.2,26.9c0,10.5-3.8,19.4-11.3,26.8c-7.6,7.4-16.7,11-27.3,11c-9.4,0-17.9-3.3-25.5-9.8
				C385.2,583.2,381.1,573.7,381.1,562z M392.2,562.1c0,8.1,2.7,14.7,8.2,20c5.4,5.2,11.6,7.8,18.7,7.8c7.7,0,14.2-2.7,19.4-8
				c5.3-5.4,7.9-11.9,7.9-19.6c0-7.8-2.6-14.3-7.8-19.6c-5.2-5.3-11.6-8-19.2-8c-7.6,0-14,2.7-19.3,8
				C394.9,547.9,392.2,554.4,392.2,562.1z"/>
			<path d="M478.8,598.9v-78.2l53.4,55.8v-50.9h11v77.6l-53.4-55.7v51.2H478.8z"/>
			<path d="M568,598.9v-73.2h15.4c7.4,0,13.2,0.7,17.4,2.2c4.6,1.4,8.7,3.8,12.5,7.3c7.6,6.9,11.3,15.9,11.3,27.2
				c0,11.2-3.9,20.3-11.8,27.3c-4,3.5-8.1,5.9-12.4,7.3c-4,1.4-9.8,2-17.2,2H568z M579,588.5h5c5,0,9.1-0.5,12.4-1.6
				c3.3-1.1,6.3-2.9,8.9-5.3c5.4-5,8.2-11.4,8.2-19.4c0-8-2.7-14.5-8.1-19.5c-4.8-4.5-12-6.7-21.4-6.7h-5V588.5z"/>
			<path d="M642.1,562c0-10.3,3.8-19.1,11.3-26.5c7.5-7.4,16.6-11.1,27.1-11.1c10.4,0,19.4,3.7,26.8,11.2
				c7.5,7.5,11.2,16.4,11.2,26.9c0,10.5-3.8,19.4-11.3,26.8c-7.6,7.4-16.7,11-27.3,11c-9.4,0-17.9-3.3-25.5-9.8
				C646.2,583.2,642.1,573.7,642.1,562z M653.2,562.1c0,8.1,2.7,14.7,8.2,20c5.4,5.2,11.6,7.8,18.7,7.8c7.7,0,14.2-2.7,19.4-8
				c5.3-5.4,7.9-11.9,7.9-19.6c0-7.8-2.6-14.3-7.8-19.6c-5.2-5.3-11.6-8-19.2-8c-7.6,0-14,2.7-19.3,8
				C655.9,547.9,653.2,554.4,653.2,562.1z"/>
			<path d="M192.1,646.1v13.1c-6.4-5.3-13-8-19.8-8c-7.5,0-13.9,2.7-19,8.1c-5.2,5.4-7.8,11.9-7.8,19.7c0,7.7,2.6,14.2,7.8,19.4
				c5.2,5.3,11.5,7.9,19.1,7.9c3.9,0,7.2-0.6,9.9-1.9c1.5-0.6,3.1-1.5,4.7-2.6c1.6-1.1,3.3-2.4,5.1-3.9v13.3
				c-6.3,3.6-13,5.4-19.9,5.4c-10.5,0-19.4-3.6-26.8-10.9c-7.4-7.4-11-16.2-11-26.6c0-9.3,3.1-17.6,9.2-24.9
				c7.6-8.9,17.4-13.4,29.4-13.4C179.6,640.8,185.9,642.6,192.1,646.1z"/>
			<path d="M258,697.6h-31.3l-8.2,17.8h-11.9l36.2-77.8l34.9,77.8h-12.1L258,697.6z M253.5,687.2l-10.9-24.9l-11.4,24.9H253.5z"/>
			<path d="M294.2,715.4v-78.2l53.4,55.8v-50.9h11v77.6l-53.4-55.7v51.2H294.2z"/>
			<path d="M427,697.6h-31.3l-8.2,17.8h-11.9l36.2-77.8l34.9,77.8h-12.1L427,697.6z M422.5,687.2l-10.9-24.9l-11.4,24.9H422.5z"/>
			<path d="M463.2,715.4v-73.2h15.4c7.4,0,13.2,0.7,17.4,2.2c4.6,1.4,8.7,3.8,12.5,7.3c7.6,6.9,11.3,15.9,11.3,27.2
				c0,11.2-3.9,20.3-11.8,27.3c-4,3.5-8.1,5.9-12.4,7.3c-4,1.4-9.8,2-17.2,2H463.2z M474.2,705h5c5,0,9.1-0.5,12.4-1.6
				c3.3-1.1,6.3-2.9,8.9-5.3c5.4-5,8.2-11.4,8.2-19.4c0-8-2.7-14.5-8.1-19.5c-4.8-4.5-12-6.7-21.4-6.7h-5V705z"/>
			<path d="M580.3,697.6H549l-8.2,17.8H529l36.2-77.8l34.9,77.8H588L580.3,697.6z M575.8,687.2L565,662.3l-11.4,24.9H575.8z"/>
		</g>
	</g>
</g>
</svg>
