<?xml version="1.0" encoding="utf-8"?>
<!-- Generator: Adobe Illustrator 27.0.1, SVG Export Plug-In . SVG Version: 6.00 Build 0)  -->
<!DOCTYPE svg PUBLIC "-//W3C//DTD SVG 1.1//EN" "http://www.w3.org/Graphics/SVG/1.1/DTD/svg11.dtd" [
	<!ENTITY ns_extend "http://ns.adobe.com/Extensibility/1.0/">
	<!ENTITY ns_ai "http://ns.adobe.com/AdobeIllustrator/10.0/">
	<!ENTITY ns_graphs "http://ns.adobe.com/Graphs/1.0/">
	<!ENTITY ns_vars "http://ns.adobe.com/Variables/1.0/">
	<!ENTITY ns_imrep "http://ns.adobe.com/ImageReplacement/1.0/">
	<!ENTITY ns_sfw "http://ns.adobe.com/SaveForWeb/1.0/">
	<!ENTITY ns_custom "http://ns.adobe.com/GenericCustomNamespace/1.0/">
	<!ENTITY ns_adobe_xpath "http://ns.adobe.com/XPath/1.0/">
]>
<svg version="1.1" id="Layer_1" xmlns:x="&ns_extend;" xmlns:i="&ns_ai;" xmlns:graph="&ns_graphs;"
	 xmlns="http://www.w3.org/2000/svg" xmlns:xlink="http://www.w3.org/1999/xlink" x="0px" y="0px" viewBox="0 0 145 145"
	 style="enable-background:new 0 0 145 145;" xml:space="preserve">
<style type="text/css">
	.st0{fill:#E4EEF4;}
	.st1{fill:#C6D3DB;}
	.st2{fill:#B3C1C6;}
	.st3{fill:#DCE7EE;}
	.st4{fill:#A6B7BF;}
	.st5{fill:#00AEEF;}
	.st6{clip-path:url(#SVGID_00000016075965107828259930000014617632199702033583_);fill:#DD003F;}
</style>
<metadata>
	<sfw  xmlns="&ns_sfw;">
		<slices></slices>
		<sliceSourceBounds  bottomLeftOrigin="true" height="134.4" width="138.1" x="3.5" y="5.2"></sliceSourceBounds>
	</sfw>
</metadata>
<g>
	<g>
		<path class="st0" d="M44.4,91.3c0,0-7,12.7-8.5,28.4c-0.3,3.6,1.7,6.9,5.1,8.1c4.3,1.5,10.7,3.3,16.7,3.3l4-38.8L44.4,91.3z"/>
		<path class="st0" d="M52.1,91.3c0,0-8.5,24.5-10,32.2c0,0,33.5,11.6,61.1,5.6c3.7-0.8,6.3-4.3,6-8.2c-0.6-7.7-2.4-20.7-8.6-28.6
			L52.1,91.3z"/>
		<path class="st1" d="M42.1,123.6c0,0,4.3,1.5,11,3.1c1.8-9.3,8.5-34.3,8.5-34.3l-5.8-1l-3.7-0.1C52.1,91.3,43.6,115.9,42.1,123.6z
			"/>
		<path class="st0" d="M59.2,8.2c0,0,11.5-6.2,24.9,0l-1.8,17L73,30.9L64.9,27l-6.3-13.7L59.2,8.2z"/>
		<path class="st2" d="M59.2,8.2l-0.6,5.1l1.2,2.7c4.6-2.7,12.8-6.4,23.5-0.8L84,8.3C70.7,1.9,59.2,8.2,59.2,8.2z"/>
		<g>
			<path class="st3" d="M38.2,24.1c0,0-23.4,28.9-27.9,41.6s-7.5,31-6.6,33.4s10.2,4.6,12,4.3c1.8-0.3,2.9-1.2,4.2-4.3
				c1.3-3.1,6.3-25.6,8-27.8C29.7,69.1,41.2,52,41.2,52l6-6L46,27.1L38.2,24.1z"/>
			<path class="st4" d="M4.2,98.6c0,0.4,0.7,1.3,2.4,2s3.5,1.3,4.9,1.6c1.4,0.3,3.4,0.7,4.3,0.6s1.8-0.5,1.9-0.7s0.5-0.5,0-0.8
				c-0.5-0.4-2.9-1.6-7-2.6C6.6,97.8,4.2,97.8,4.2,98.6z"/>
		</g>
		<g>
			<path class="st3" d="M107,24.1c0,0,23.4,28.9,27.9,41.6s7.5,31,6.6,33.4s-10.2,4.6-12,4.3c-1.8-0.3-2.9-1.2-4.2-4.3
				c-1.3-3.1-6.3-25.6-8-27.8C115.5,69.1,104,52,104,52l-6-6l1.2-18.9L107,24.1z"/>
			<path class="st4" d="M140.9,98.6c0,0.4-0.7,1.3-2.3,2c-1.7,0.7-3.5,1.3-4.9,1.6c-1.4,0.3-3.4,0.7-4.3,0.6
				c-0.9-0.1-1.8-0.5-1.9-0.7c-0.1-0.1-0.5-0.5,0-0.8c0.5-0.4,2.9-1.6,7-2.6C138.5,97.8,141,97.8,140.9,98.6z"/>
		</g>
		<path class="st0" d="M107.2,24.1c-1.3-4.4-20.1-9.8-20.6-9.8c0,0-7.6,12.6-10.1,17.4L67,28.3l0,0c-3.2-5.7-8.3-14-8.3-14
			c-0.4,0-19.2,5.5-20.6,9.8c0,0,6.2,21.7,3.2,27.7c0,0,0.3,28.9,5,40.8L67,103.4h3.1h5.1h3.1l20.6-10.9c4.7-11.9,5-40.8,5-40.8
			C101,45.8,107.2,24.1,107.2,24.1z"/>
		<path class="st1" d="M56.6,14.9l2.6-6.7c0,0,10.9,18.9,19.5,27.4l-10.1,6.5C68.6,42.1,58.5,27.8,56.6,14.9z"/>
		<path class="st2" d="M64,34.6c2.5,4.5,4.6,7.6,4.6,7.6l10.1-6.5c-2.8-2.8-5.9-6.7-8.7-10.8c-1,1.5-1.9,2.9-2.8,4.4
			C65.9,31.1,64.9,32.9,64,34.6z"/>
		<path class="st1" d="M84.1,8.2c0,0-8.3,12.2-14,22.1c-6,10.5-7.7,18.1-10.1,25.4c-3.5,10.7-5.4,19-9.5,40.4l9,4.4
			c0,0,5.7-21.1,9.8-38.9c2-8.7,5-15.7,9.3-24.8c2.7-5.7,7-14.4,8.1-22.4L84.1,8.2z"/>
	</g>
	<path class="st5" d="M44.5,85c4.8,1.1,34.7,7.6,56.1,0.1c0.4-0.1,0.7,0.2,0.7,0.6V93c0,0.2-0.1,0.5-0.3,0.6
		c-2.9,1.3-24.2,9.7-56.8-1.2c-0.2-0.1-0.4-0.3-0.4-0.6v-6.2C43.8,85.2,44.1,84.9,44.5,85z"/>
	<g>
		<defs>
			<path id="SVGID_1_" d="M99.9,126.7c0,0-5.3-22.5-9.9-35.4l0,0c-0.6-2.6-2.7-4.6-6-4.6c-4,0-5.1,2.8-5.1,6.2
				c0,0-5.8,28.3-6.2,46.9h9.4c0,0-1-26.1,1.4-40.8c0.1,0,0.3,0,0.5,0c0.9,0,1.8-0.2,2.5-0.4c2.2,9.2,5.5,23.7,6.7,30.9L99.9,126.7z
				"/>
		</defs>
		<use xlink:href="#SVGID_1_"  style="overflow:visible;fill:#0096C4;"/>
		<clipPath id="SVGID_00000097481704512218160050000015300462522613111946_">
			<use xlink:href="#SVGID_1_"  style="overflow:visible;"/>
		</clipPath>
		
			<rect x="72.5" y="131.5" style="clip-path:url(#SVGID_00000097481704512218160050000015300462522613111946_);fill:#DD003F;" width="9.8" height="3.2"/>
		
			<rect x="90.5" y="120.6" transform="matrix(0.9118 -0.4106 0.4106 0.9118 -41.7777 49.932)" style="clip-path:url(#SVGID_00000097481704512218160050000015300462522613111946_);fill:#DD003F;" width="9.8" height="3.2"/>
	</g>
</g>
</svg>
